<?xml version="1.0" standalone="no"?>
<!DOCTYPE svg PUBLIC "-//W3C//DTD SVG 20010904//EN"
 "http://www.w3.org/TR/2001/REC-SVG-20010904/DTD/svg10.dtd">
<svg version="1.0" xmlns="http://www.w3.org/2000/svg"
 width="300.000000pt" height="90.000000pt" viewBox="0 0 300.000000 90.000000"
 preserveAspectRatio="xMidYMid meet">
<metadata>
Created by potrace 1.16, written by Peter Selinger 2001-2019
</metadata>
<g transform="translate(0.000000,90.000000) scale(0.100000,-0.100000)"
fill="#000000" stroke="none">
<path d="M207 590 c-54 -42 -58 -124 -9 -181 17 -21 28 -49 33 -86 4 -30 10
-57 13 -61 13 -13 46 33 46 65 0 20 5 33 13 33 15 0 59 45 76 77 51 99 -86
221 -172 153z"/>
<path d="M491 567 c-36 -44 -80 -287 -52 -287 6 0 16 10 22 23 7 15 25 27 52
34 50 14 52 13 77 -38 34 -66 71 -43 46 28 -22 61 -106 231 -120 242 -10 8
-16 8 -25 -2z"/>
<path d="M1024 545 c-13 -21 -16 -40 -11 -99 11 -154 37 -188 121 -160 45 15
103 60 93 71 -4 3 -29 -2 -57 -11 -61 -20 -75 -13 -90 45 -11 39 -16 132 -9
158 7 27 -29 23 -47 -4z"/>
<path d="M2487 553 c-21 -24 -22 -76 -2 -93 12 -10 30 -9 87 4 l73 15 -75 -2
c-74 -2 -75 -2 -78 24 -4 38 19 53 63 40 54 -15 152 -73 235 -140 84 -68 106
-73 103 -22 -2 52 -71 112 -125 110 -18 -1 -15 -3 11 -11 49 -14 77 -35 91
-68 23 -55 4 -51 -70 15 -81 71 -193 133 -256 142 -30 4 -43 1 -57 -14z"/>
<path d="M734 516 c-40 -39 -44 -48 -44 -92 1 -55 11 -72 60 -103 48 -29 110
-28 160 4 46 29 60 52 60 96 0 41 -67 109 -108 109 -15 0 -36 7 -46 15 -28 22
-34 20 -82 -29z m63 -46 c27 0 84 -32 100 -57 14 -22 14 -25 -2 -43 -22 -24
-55 -26 -95 -5 -57 30 -77 89 -42 128 17 19 17 19 20 -2 2 -11 10 -21 19 -21z"/>
<path d="M1314 516 c-39 -39 -44 -48 -44 -90 0 -26 5 -56 10 -67 16 -28 83
-59 131 -59 63 0 138 59 139 109 0 51 -64 121 -112 121 -13 0 -32 7 -42 15
-28 22 -34 20 -82 -29z m46 -26 c0 -12 7 -20 16 -20 28 0 85 -32 102 -58 15
-23 15 -26 -7 -43 -13 -11 -33 -19 -45 -19 -31 0 -83 35 -100 68 -13 25 -13
32 1 60 18 36 33 42 33 12z"/>
</g>
</svg>
