<?xml version="1.0" standalone="no"?>
<!DOCTYPE svg PUBLIC "-//W3C//DTD SVG 20010904//EN"
 "http://www.w3.org/TR/2001/REC-SVG-20010904/DTD/svg10.dtd">
<svg version="1.0" xmlns="http://www.w3.org/2000/svg"
 width="1280.000000pt" height="1280.000000pt" viewBox="0 0 1280.000000 1280.000000"
 preserveAspectRatio="xMidYMid meet">
<metadata>
Created by potrace 1.16, written by Peter Selinger 2001-2019
</metadata>
<g transform="translate(0.000000,1280.000000) scale(0.100000,-0.100000)"
fill="#000000" stroke="none">
<path d="M2160 10116 c-219 -26 -328 -56 -539 -149 -374 -166 -608 -398 -711
-706 -46 -136 -60 -218 -66 -391 -14 -354 76 -797 225 -1105 103 -214 231
-354 396 -436 130 -64 184 -74 385 -74 156 1 188 4 293 29 309 72 686 238
1192 526 656 372 1384 655 2305 895 l175 46 -123 -6 c-385 -16 -916 -116
-1407 -265 -381 -116 -703 -233 -1345 -490 -409 -164 -624 -245 -780 -295
-153 -49 -297 -34 -421 46 -70 45 -181 167 -234 256 -123 211 -182 459 -172
727 6 173 30 276 93 403 114 230 318 347 716 410 155 25 659 24 896 0 1081
-112 2583 -502 4067 -1055 621 -232 925 -369 2140 -965 506 -248 721 -347 955
-442 482 -196 794 -247 1012 -165 92 34 132 70 174 156 37 74 38 80 42 203 7
217 -47 430 -172 688 -277 569 -773 1064 -1381 1379 -449 233 -977 335 -1660
321 -428 -9 -809 -56 -1062 -133 -129 -39 -108 -47 95 -38 268 13 732 8 952
-10 722 -60 1293 -232 1723 -519 159 -107 252 -184 393 -329 217 -223 365
-438 537 -783 97 -195 129 -283 131 -361 2 -101 -42 -127 -173 -100 -172 36
-481 182 -1346 636 -602 316 -1449 746 -1745 886 -1360 641 -2879 1051 -4450
1200 -229 22 -952 28 -1110 10z"/>
<path d="M1695 6470 c-219 -33 -363 -148 -471 -375 -61 -130 -86 -250 -87
-410 -1 -273 86 -502 249 -655 173 -162 170 -160 187 -235 9 -38 23 -158 32
-265 25 -307 46 -424 85 -487 17 -29 25 -33 63 -33 47 0 123 42 200 110 69 60
71 71 68 294 -1 129 2 209 9 226 12 30 27 39 110 70 195 72 379 255 515 513
72 137 115 289 115 408 0 171 -141 447 -308 601 -191 176 -514 276 -767 238z
m91 -385 c157 -53 278 -129 385 -243 108 -114 175 -227 199 -333 14 -63 2
-140 -40 -252 -18 -49 -30 -63 -83 -101 -72 -51 -183 -108 -246 -127 -40 -12
-45 -11 -57 6 -22 30 -50 133 -83 310 -53 275 -84 344 -194 432 -52 41 -74 41
-122 3 -66 -53 -95 -34 -95 62 0 98 74 215 160 252 50 22 91 20 176 -9z"/>
<path d="M3540 6253 c-101 -67 -151 -135 -204 -275 -14 -37 -68 -215 -120
-395 -103 -358 -121 -450 -151 -804 -21 -244 -25 -596 -7 -626 48 -86 213 74
228 220 11 107 12 108 149 122 89 10 173 31 298 76 153 55 184 61 223 44 44
-18 76 -69 192 -307 84 -172 110 -217 155 -263 49 -51 56 -55 99 -55 39 0 54
6 96 39 141 112 115 220 -226 956 -68 149 -166 365 -217 481 -162 368 -306
629 -420 762 -40 45 -56 50 -95 25z m35 -617 c38 -58 154 -372 190 -515 20
-78 22 -149 6 -178 -17 -32 -52 -38 -146 -23 -95 15 -148 9 -187 -20 -77 -56
-81 -8 -27 270 27 139 95 411 113 455 18 41 30 44 51 11z"/>
<path d="M7400 6199 c-82 -42 -172 -130 -189 -187 -21 -72 -31 -252 -31 -558
0 -317 9 -439 46 -644 80 -436 160 -619 297 -681 47 -22 66 -24 193 -24 133 0
143 1 190 27 27 14 110 47 184 73 224 78 335 137 447 239 96 87 172 226 143
261 -17 21 -39 19 -105 -10 -31 -14 -89 -30 -129 -36 -83 -11 -164 -36 -346
-104 -147 -55 -189 -59 -253 -22 -74 44 -135 161 -191 369 -110 408 -140 874
-71 1107 34 118 26 154 -45 204 -35 25 -68 21 -140 -14z"/>
<path d="M5508 6086 c-90 -37 -183 -109 -328 -255 -139 -139 -189 -205 -247
-323 -57 -114 -76 -212 -77 -378 0 -172 12 -236 65 -347 87 -182 370 -402 588
-458 229 -58 478 -80 590 -50 153 40 443 227 606 390 211 211 249 416 125 670
-70 143 -214 310 -384 446 -197 158 -232 171 -409 149 -127 -15 -148 -8 -247
85 -39 36 -86 73 -105 81 -49 20 -112 17 -177 -10z m-13 -350 c16 -12 20 -31
25 -116 6 -127 12 -133 137 -150 276 -37 360 -67 484 -173 115 -99 268 -262
289 -308 16 -38 17 -47 5 -86 -18 -60 -58 -116 -117 -163 -284 -226 -737 -75
-1003 333 -94 144 -113 232 -80 362 32 125 117 254 194 295 44 23 43 23 66 6z"/>
<path d="M9618 6086 c-144 -59 -394 -286 -515 -469 -54 -81 -96 -177 -120
-273 -23 -96 -23 -342 0 -438 36 -145 126 -270 281 -390 193 -149 315 -198
607 -240 218 -32 345 -17 487 59 265 141 513 353 596 510 92 172 70 373 -63
576 -106 161 -284 335 -468 459 -89 60 -131 68 -270 51 -133 -17 -154 -9 -255
85 -107 100 -169 116 -280 70z m-1 -367 c7 -13 13 -59 13 -102 0 -83 9 -110
40 -127 11 -6 85 -20 165 -31 262 -36 320 -66 525 -265 148 -145 190 -201 190
-253 -1 -75 -60 -159 -162 -229 -145 -100 -354 -102 -557 -6 -147 69 -296 202
-401 359 -96 142 -116 224 -89 357 26 123 124 273 203 309 48 22 57 20 73 -12z"/>
<path d="M8363 3403 c-41 -10 -63 -20 -63 -29 0 -8 9 -14 19 -14 27 0 95 -80
164 -191 l58 -94 -3 -94 -3 -95 -32 -8 c-19 -5 -33 -15 -33 -23 0 -13 23 -15
135 -15 109 0 135 3 135 14 0 15 -21 26 -50 26 -23 0 -30 27 -30 125 0 93 3
101 116 272 41 62 74 117 74 122 0 6 -15 11 -33 11 -31 0 -35 -5 -106 -130
-41 -71 -77 -130 -80 -130 -3 0 -31 46 -61 102 -56 104 -107 169 -131 167 -8
-1 -42 -8 -76 -16z"/>
<path d="M9346 3409 c-60 -14 -103 -46 -125 -93 -37 -76 -20 -160 43 -201 13
-9 64 -23 113 -32 123 -23 162 -63 133 -137 -24 -64 -138 -87 -215 -43 -33 19
-42 30 -49 65 -13 63 -31 52 -42 -28 l-10 -70 46 -18 c70 -27 211 -24 273 7
72 35 101 79 105 160 5 107 -27 141 -153 161 -104 16 -133 28 -150 61 -20 38
-11 72 28 105 27 23 38 26 88 22 76 -5 109 -28 109 -73 0 -27 4 -35 19 -35 15
0 19 11 25 62 7 70 6 72 -67 88 -57 12 -117 12 -171 -1z"/>
<path d="M5562 3394 c2 -12 15 -21 33 -24 28 -5 30 -9 37 -60 8 -75 9 -228 2
-338 -6 -77 -10 -93 -25 -97 -11 -4 -19 -13 -19 -22 0 -13 25 -14 188 -11 177
3 190 5 243 29 118 55 179 151 179 282 0 117 -35 182 -125 230 -37 20 -58 22
-278 25 -227 4 -239 3 -235 -14z m366 -39 c51 -8 95 -43 124 -99 27 -52 29
-181 5 -237 -22 -49 -64 -98 -96 -111 -39 -16 -122 -27 -162 -21 l-37 5 -7 71
c-3 39 -3 144 1 233 l7 163 36 4 c37 4 55 3 129 -8z"/>
<path d="M6461 3227 c-125 -306 -146 -347 -175 -347 -19 0 -26 -5 -26 -20 0
-19 7 -20 95 -20 88 0 95 1 95 20 0 15 -7 20 -24 20 -36 0 -39 13 -20 75 l18
55 108 0 109 0 19 -46 c29 -66 27 -84 -10 -84 -23 0 -30 -4 -30 -20 0 -19 7
-20 130 -20 123 0 130 1 130 20 0 13 -7 20 -19 20 -11 0 -26 9 -34 20 -7 11
-60 130 -118 265 l-104 245 -35 0 -35 0 -74 -183z m118 -67 l39 -95 -80 -3
c-44 -2 -82 -1 -84 1 -2 2 10 37 27 78 17 41 35 85 40 98 5 13 12 22 14 19 2
-2 22 -46 44 -98z"/>
<path d="M6920 3390 c0 -16 7 -20 30 -20 19 0 33 -7 40 -19 11 -21 12 -385 1
-435 -5 -23 -14 -32 -38 -38 -19 -5 -33 -15 -33 -23 0 -12 19 -15 101 -15 90
0 100 2 97 17 -2 11 -15 20 -33 23 l-30 5 -3 193 -2 194 52 -64 c28 -35 111
-131 185 -214 129 -147 150 -164 204 -164 5 0 9 116 9 258 0 273 1 282 47 282
16 0 23 6 23 20 0 19 -7 20 -101 20 -90 0 -100 -2 -97 -17 2 -12 14 -19 35
-21 22 -2 33 -9 37 -25 9 -35 7 -339 -2 -335 -12 4 -160 172 -261 296 l-84
102 -88 0 c-82 0 -89 -2 -89 -20z"/>
<path d="M7630 3391 c0 -15 8 -21 33 -23 l32 -3 3 -220 c1 -121 0 -230 -3
-242 -3 -14 -14 -23 -32 -25 -17 -2 -29 -10 -31 -20 -3 -16 6 -18 92 -18 89 0
96 1 96 20 0 15 -7 20 -25 20 -39 0 -46 34 -43 221 l3 168 148 -172 c222 -259
219 -255 264 -263 l40 -6 -4 123 c-2 68 0 189 4 269 l8 145 30 5 c18 3 31 12
33 23 3 15 -7 17 -97 17 -93 0 -101 -1 -101 -19 0 -15 8 -21 33 -23 l32 -3 2
-180 2 -180 -62 68 c-34 37 -111 128 -172 201 l-110 134 -87 1 c-81 1 -88 -1
-88 -18z"/>
<path d="M9900 3391 c0 -16 8 -20 38 -23 l37 -3 3 -303 c1 -197 -1 -310 -8
-322 -13 -24 -39 -26 -66 -5 -29 22 -34 18 -34 -25 0 -40 0 -40 39 -40 58 0
128 51 163 119 l28 53 0 247 c0 264 2 277 50 283 14 2 26 11 28 21 3 15 -9 17
-137 17 -133 0 -141 -1 -141 -19z"/>
<path d="M10501 3393 c-5 -10 -41 -97 -81 -193 -124 -299 -135 -320 -164 -320
-19 0 -26 -5 -26 -20 0 -19 7 -20 95 -20 88 0 95 1 95 20 0 15 -7 20 -24 20
-36 0 -41 16 -20 76 l18 54 109 0 108 0 15 -36 c8 -19 17 -48 21 -65 5 -27 4
-29 -26 -29 -24 0 -31 -4 -31 -20 0 -19 7 -20 130 -20 123 0 130 1 130 20 0
13 -7 20 -19 20 -11 0 -26 9 -34 20 -7 11 -60 130 -118 265 l-104 245 -32 0
c-21 0 -36 -6 -42 -17z m70 -285 l19 -48 -85 0 c-47 0 -85 2 -85 4 0 2 14 36
31 77 17 41 35 85 41 99 10 24 11 23 35 -30 14 -30 34 -76 44 -102z"/>
<path d="M10930 3340 c0 -63 2 -70 20 -70 15 0 20 7 20 28 0 50 9 53 139 59
66 3 121 3 121 0 0 -10 -184 -271 -271 -385 -44 -57 -79 -109 -79 -117 0 -13
38 -15 249 -15 l250 0 6 48 c3 26 7 57 9 70 2 16 -2 22 -15 22 -13 0 -21 -12
-29 -40 -13 -50 -20 -52 -178 -48 l-123 3 114 162 c64 89 143 198 176 242 34
44 61 87 61 95 0 14 -29 16 -235 16 l-235 0 0 -70z"/>
<path d="M11500 3340 c0 -53 3 -70 14 -70 8 0 18 16 23 38 8 34 12 37 53 44
67 10 200 9 200 -1 0 -10 -219 -320 -294 -415 -78 -100 -86 -96 204 -96 l250
0 0 39 c0 21 3 53 6 70 6 26 4 31 -13 31 -15 0 -22 -9 -27 -32 -11 -56 -17
-58 -162 -58 -74 0 -134 3 -134 6 0 9 118 179 233 333 59 80 107 153 107 163
0 17 -16 18 -230 18 l-230 0 0 -70z"/>
<path d="M4410 3085 l0 -205 95 0 c149 0 205 34 205 123 0 39 -32 87 -58 87
-13 0 -11 6 10 25 33 30 42 57 33 101 -10 58 -49 74 -177 74 l-108 0 0 -205z
m202 125 c22 -28 22 -32 1 -59 -13 -16 -33 -24 -75 -28 l-58 -6 0 63 0 62 57
-4 c43 -4 61 -10 75 -28z m9 -169 c25 -31 24 -47 -6 -76 -20 -21 -34 -25 -80
-25 l-55 0 0 66 0 66 61 -4 c49 -4 66 -9 80 -27z"/>
<path d="M4750 3283 c0 -3 29 -60 65 -125 65 -118 65 -120 65 -199 l0 -79 35
0 35 0 0 80 c0 87 -3 78 116 288 l25 42 -40 0 -41 0 -46 -92 -46 -91 -49 91
c-48 89 -51 92 -84 92 -19 0 -35 -3 -35 -7z"/>
</g>
</svg>
